<svg xmlns="http://www.w3.org/2000/svg" xmlns:xlink="http://www.w3.org/1999/xlink" version="1.1" x="0px" y="0px" viewBox="0 0 100 125" enable-background="new 0 0 100 100" xml:space="preserve"><path d="M12.5,95h75c4.1,0,7.5-3.4,7.5-7.5v-75C95,8.4,91.6,5,87.5,5h-75C8.4,5,5,8.4,5,12.5v75C5,91.6,8.4,95,12.5,95z M10,12.5  c0-1.4,1.1-2.5,2.5-2.5h75c1.4,0,2.5,1.1,2.5,2.5v75c0,1.4-1.1,2.5-2.5,2.5h-75c-1.4,0-2.5-1.1-2.5-2.5V12.5z"/><path d="M39.5,76.2c0.2,0.1,0.3,0.1,0.5,0.1h20c0.3,0,0.6-0.1,0.9-0.4l7.5-7.5c0,0,0,0,0,0c0.1-0.1,0.2-0.2,0.2-0.4c0,0,0-0.1,0-0.1  c0-0.1,0.1-0.2,0.1-0.3c0,0,0,0,0-0.1c0,0,0,0,0,0c0-0.1,0-0.3-0.1-0.4c0,0,0,0,0,0c0,0,0,0,0,0l-7.4-17.3V25c0-0.7-0.6-1.3-1.3-1.3  H40c-0.7,0-1.3,0.6-1.3,1.3v50c0,0.2,0,0.3,0.1,0.5C39,75.8,39.2,76,39.5,76.2z M59.5,73.8H43l5-5h16.5L59.5,73.8z M41.3,72V56.1  L46,67.2L41.3,72z M65.6,66.3H48.3l-6.4-15h17.3L65.6,66.3z M58.8,26.3v22.5H41.3V26.3H58.8z"/></svg>